<?xml version="1.0" standalone="no"?>
<!DOCTYPE svg PUBLIC "-//W3C//DTD SVG 20010904//EN"
 "http://www.w3.org/TR/2001/REC-SVG-20010904/DTD/svg10.dtd">
<svg version="1.0" xmlns="http://www.w3.org/2000/svg"
 width="600.000000pt" height="600.000000pt" viewBox="0 0 600.000000 600.000000"
 preserveAspectRatio="xMidYMid meet">
<metadata>
Created by potrace 1.11, written by Peter Selinger 2001-2013
</metadata>
<g transform="translate(0.000000,600.000000) scale(0.100000,-0.100000)"
fill="#000000" stroke="none">
<path d="M2829 5576 c-2 -2 -38 -6 -79 -10 -78 -6 -128 -12 -170 -21 -14 -3
-43 -8 -65 -11 -54 -8 -243 -57 -335 -87 -311 -102 -674 -314 -909 -531 -38
-35 -186 -186 -216 -220 -27 -30 -126 -157 -158 -201 -43 -60 -168 -262 -168
-270 1 -3 -12 -29 -28 -58 -53 -94 -158 -354 -176 -436 -2 -9 -15 -59 -28
-111 -29 -112 -56 -261 -65 -368 -15 -162 -7 -488 14 -622 3 -19 7 -44 8 -55
14 -106 93 -398 132 -482 7 -17 14 -36 14 -43 0 -27 163 -342 230 -445 239
-365 535 -643 909 -856 52 -30 97 -54 100 -55 3 0 44 -18 91 -40 47 -22 101
-46 120 -53 19 -7 44 -17 55 -22 77 -33 269 -86 410 -113 174 -33 268 -41 490
-41 231 0 289 6 526 50 54 10 225 56 262 70 20 8 37 12 37 9 0 -4 6 -2 13 3 6
5 41 20 77 33 279 100 611 307 834 519 110 105 100 95 230 241 46 52 165 219
220 309 132 214 278 574 312 765 3 17 9 49 14 71 5 22 12 60 15 85 4 24 8 47
10 50 9 15 20 198 20 360 0 171 -6 291 -19 365 -3 17 -10 62 -17 100 -15 95
-64 281 -101 390 -161 468 -476 904 -873 1206 -85 65 -231 161 -295 194 -30
16 -62 34 -70 40 -8 7 -71 37 -140 67 -163 72 -342 133 -480 162 -94 20 -134
28 -200 37 -41 6 -86 13 -100 15 -34 6 -446 15 -451 10z"/>
</g>
</svg>
